<?xml version="1.0" standalone="no"?>
<!DOCTYPE svg PUBLIC "-//W3C//DTD SVG 20010904//EN"
 "http://www.w3.org/TR/2001/REC-SVG-20010904/DTD/svg10.dtd">
<svg version="1.0" xmlns="http://www.w3.org/2000/svg"
 width="1024.000000pt" height="1024.000000pt" viewBox="0 0 1024.000000 1024.000000"
 preserveAspectRatio="xMidYMid meet">

<g transform="translate(0.000000,1024.000000) scale(0.100000,-0.100000)"
fill="#000000" stroke="none">
<path d="M7623 7763 c-30 -6 -73 -59 -73 -89 0 -43 47 -105 73 -96 5 1 6 -2 2
-8 -3 -5 4 -24 17 -41 20 -26 23 -42 22 -112 0 -45 -6 -100 -13 -122 -17 -50
-79 -149 -104 -165 -22 -13 -19 -7 18 45 24 33 50 95 60 139 5 24 4 27 -7 19
-7 -6 -31 -23 -53 -38 -36 -25 -34 -27 9 -9 19 7 12 -69 -9 -99 -17 -25 -19
-16 -6 31 6 20 6 30 0 27 -5 -4 -9 -16 -9 -28 0 -18 -2 -19 -10 -7 -7 11 -8 5
-4 -20 3 -22 2 -30 -3 -23 -14 19 -35 -49 -31 -100 2 -38 0 -43 -26 -56 -16
-7 -31 -22 -33 -32 -3 -11 -9 -19 -14 -19 -5 0 -9 -9 -9 -20 0 -11 -4 -20 -9
-20 -5 0 -11 -9 -14 -20 -3 -11 -12 -20 -21 -20 -9 0 -16 -8 -16 -18 0 -9 -9
-23 -20 -30 -11 -7 -20 -19 -20 -27 0 -8 -9 -20 -20 -27 -11 -7 -20 -23 -20
-35 0 -13 -6 -23 -14 -23 -8 0 -18 -5 -22 -12 -5 -8 -2 -9 12 -3 10 4 37 9 60
10 30 1 66 19 147 70 59 38 102 72 96 75 -7 5 -5 9 6 13 9 4 13 3 10 -3 -3 -6
-4 -10 -1 -10 8 0 128 71 155 92 13 10 30 18 39 18 8 0 -41 -39 -109 -86 -148
-103 -372 -272 -414 -312 -16 -15 -39 -34 -51 -42 -54 -38 -164 -146 -160
-157 3 -7 -1 -10 -8 -7 -12 5 -150 -135 -301 -306 -115 -130 -245 -309 -314
-431 l-31 -56 33 4 c111 13 307 52 307 62 0 3 11 7 24 7 76 5 347 181 407 265
l23 32 -35 -7 c-122 -25 -359 -44 -359 -28 0 4 69 27 153 51 157 45 180 54
282 101 l60 29 -160 1 c-88 1 -169 5 -180 10 -18 8 -18 9 -2 9 57 3 221 24
277 37 151 34 305 116 472 252 38 30 65 59 61 65 -3 5 -1 7 4 4 11 -7 50 30
41 38 -3 3 -25 1 -49 -5 -55 -13 -357 -26 -346 -14 4 4 47 16 95 25 113 23
203 50 197 60 -3 4 3 5 12 3 22 -5 159 69 156 84 -2 6 3 9 10 6 18 -6 131 102
121 117 -4 8 -3 10 4 5 17 -10 79 91 107 173 36 105 49 193 42 285 -24 319
-269 566 -514 519z m-13 -463 c0 -5 -5 -10 -11 -10 -5 0 -7 5 -4 10 3 6 8 10
11 10 2 0 4 -4 4 -10z m517 -92 c-3 -8 -6 -5 -6 6 -1 11 2 17 5 13 3 -3 4 -12
1 -19z m-536 -75 c-12 -20 -14 -14 -5 12 4 9 9 14 11 11 3 -2 0 -13 -6 -23z
m-211 -363 c0 -5 -4 -10 -10 -10 -5 0 -10 5 -10 10 0 6 5 10 10 10 6 0 10 -4
10 -10z m568 -26 c-1 -5 -9 -9 -16 -10 -10 -2 -11 1 -1 12 12 14 24 13 17 -2z
m-224 -273 c3 -4 -7 -19 -22 -32 l-27 -24 23 26 c12 14 19 29 15 32 -3 4 -4 7
0 7 3 0 8 -4 11 -9z m-599 -411 c-3 -5 -11 -10 -16 -10 -6 0 -7 5 -4 10 3 6
11 10 16 10 6 0 7 -4 4 -10z"/>
<path d="M5066 7553 c-221 -47 -432 -176 -656 -402 -222 -223 -369 -423 -595
-808 l-72 -122 -134 257 c-73 141 -158 305 -189 364 l-55 108 -137 0 c-112 0
-138 -3 -138 -14 0 -13 72 -153 233 -451 38 -71 105 -197 148 -280 l77 -150
-2 -273 c-1 -150 1 -277 4 -282 7 -11 196 -23 223 -14 16 5 17 27 17 281 l0
276 61 115 c382 717 740 1156 1064 1303 142 64 345 89 490 59 154 -31 289
-130 352 -258 37 -74 38 -79 38 -186 0 -99 -3 -117 -27 -168 -14 -31 -47 -76
-72 -101 -48 -46 -57 -67 -29 -67 29 0 120 105 144 168 19 47 23 77 24 168 0
108 -1 111 -39 190 -71 143 -196 242 -362 284 -94 24 -265 26 -368 3z"/>
<path d="M4585 6855 c-5 -2 -23 -6 -39 -10 -19 -4 -65 -42 -130 -107 l-101
-101 64 7 c72 7 162 44 203 83 l27 26 28 -28 c45 -45 127 -78 210 -83 83 -5
94 6 32 33 -22 10 -62 44 -90 76 -28 32 -65 67 -82 78 -31 18 -101 34 -122 26z"/>
<path d="M7210 6710 c-9 -6 -10 -10 -3 -10 6 0 15 5 18 10 8 12 4 12 -15 0z"/>
<path d="M7273 6684 c-15 -14 -34 -29 -43 -34 -8 -5 -12 -11 -9 -14 3 -4 22 6
41 21 20 16 44 33 54 40 17 11 17 12 2 12 -9 1 -30 -11 -45 -25z"/>
<path d="M7220 6681 c-14 -4 -26 -15 -28 -25 -3 -12 0 -16 7 -11 6 3 9 11 6
16 -3 5 0 6 8 3 8 -3 20 2 27 11 7 8 11 15 9 14 -2 -1 -15 -4 -29 -8z"/>
<path d="M7183 6613 c0 -9 4 -10 14 -2 7 6 13 12 13 14 0 1 -6 2 -13 2 -8 0
-14 -6 -14 -14z"/>
<path d="M4240 6011 c0 -445 2 -520 15 -524 8 -4 165 -6 350 -7 301 0 336 1
342 16 3 9 1 19 -5 23 -5 3 -114 6 -241 6 l-231 0 2 230 3 230 170 5 c142 4
170 7 170 20 0 13 -27 15 -172 18 l-173 2 0 225 0 225 238 2 c229 3 237 4 237
23 0 20 -8 20 -352 23 l-353 2 0 -519z"/>
<path d="M5137 6523 c-4 -3 -7 -174 -7 -378 0 -406 2 -426 63 -521 106 -169
421 -206 599 -70 50 39 91 107 113 191 23 88 22 773 0 782 -9 3 -19 2 -23 -2
-4 -4 -7 -176 -7 -383 0 -351 -1 -381 -20 -430 -24 -66 -74 -126 -129 -155
-32 -17 -58 -22 -122 -22 -72 0 -85 3 -129 30 -33 21 -57 47 -79 85 l-31 55
-3 390 c-1 215 -4 400 -7 413 -5 21 -10 22 -109 22 -56 0 -106 -3 -109 -7z"/>
<path d="M7245 5589 c-216 -21 -421 -72 -595 -147 -156 -67 -316 -164 -305
-182 3 -5 0 -12 -6 -16 -8 -4 -9 -3 -5 4 13 21 -6 12 -35 -15 -15 -16 -39 -36
-54 -46 -14 -11 -24 -21 -21 -24 3 -3 25 10 48 28 24 19 56 40 71 47 18 8 26
17 21 25 -4 6 -3 9 1 5 5 -5 29 4 54 19 287 168 591 251 962 260 196 5 240 12
209 33 -8 6 -27 9 -42 7 -16 -2 -28 0 -28 5 0 10 -154 8 -275 -3z"/>
<path d="M7165 5399 c-116 -11 -275 -45 -390 -84 -102 -33 -309 -125 -301
-132 2 -3 22 5 44 16 75 38 312 111 430 131 156 27 381 42 574 38 99 -2 159 1
160 7 2 6 -8 11 -22 12 l-25 2 25 -8 25 -9 -25 0 c-14 0 -34 3 -45 8 l-20 9
20 2 c11 1 -5 5 -35 9 -71 10 -311 10 -415 -1z"/>
<path d="M6106 5305 c-11 -30 -6 -40 11 -22 12 12 14 20 6 28 -7 7 -12 6 -17
-6z"/>
<path d="M6086 5245 c-3 -9 -6 -22 -5 -28 0 -7 5 -1 10 12 5 13 8 26 5 28 -2
2 -6 -3 -10 -12z"/>
<path d="M7254 5249 c-128 -9 -462 -65 -452 -74 2 -2 46 2 98 10 100 14 377
34 495 34 39 0 99 4 134 7 46 5 62 4 57 -5 -5 -8 11 -11 53 -11 62 0 76 11 49
38 -14 14 -264 14 -434 1z m371 -14 l30 -13 -27 -1 c-16 -1 -28 3 -28 8 0 6
-19 12 -42 14 l-43 4 40 1 c22 1 54 -5 70 -13z"/>
<path d="M7726 5224 c-11 -8 -16 -14 -10 -14 13 0 39 18 34 24 -3 2 -14 -2
-24 -10z"/>
<path d="M4813 5210 c-40 -3 -75 -9 -79 -12 -20 -21 26 -26 233 -26 241 0 429
-16 590 -52 153 -34 128 -17 -36 25 -232 58 -507 84 -708 65z"/>
<path d="M6072 5119 c-7 -23 -11 -43 -8 -46 6 -6 28 65 24 77 -2 6 -9 -8 -16
-31z"/>
<path d="M6046 5104 c-4 -20 -5 -38 -3 -40 3 -3 8 11 11 32 4 20 5 38 3 40 -3
3 -8 -11 -11 -32z"/>
<path d="M7418 5123 c34 -2 90 -2 125 0 34 2 6 3 -63 3 -69 0 -97 -1 -62 -3z"/>
<path d="M7263 5113 c9 -2 25 -2 35 0 9 3 1 5 -18 5 -19 0 -27 -2 -17 -5z"/>
<path d="M7143 5103 c15 -2 39 -2 55 0 15 2 2 4 -28 4 -30 0 -43 -2 -27 -4z"/>
<path d="M7363 5103 c15 -2 39 -2 55 0 15 2 2 4 -28 4 -30 0 -43 -2 -27 -4z"/>
<path d="M7608 5103 c6 -2 18 -2 25 0 6 3 1 5 -13 5 -14 0 -19 -2 -12 -5z"/>
<path d="M6023 5025 c-3 -9 -3 -18 -1 -21 3 -3 8 4 11 16 6 23 -1 27 -10 5z"/>
<path d="M6045 5010 c-4 -17 -5 -34 -2 -36 2 -3 7 10 11 27 8 42 0 50 -9 9z"/>
<path d="M2463 5015 c-89 -19 -183 -68 -247 -126 -193 -176 -167 -496 48 -606
89 -46 269 -40 300 9 17 28 -1 32 -46 12 -53 -24 -166 -24 -221 0 -133 58
-205 223 -163 371 23 77 96 152 181 185 51 20 77 24 175 23 96 0 258 -20 321
-39 14 -4 15 -63 17 -547 0 -298 1 -624 1 -725 l1 -183 123 3 122 3 3 698 c1
383 5 697 10 697 4 0 114 -18 244 -40 301 -50 445 -64 583 -57 178 10 302 54
382 136 37 37 72 103 73 134 0 30 -25 18 -39 -18 -24 -69 -116 -111 -262 -122
-116 -8 -245 9 -564 74 -148 30 -327 65 -397 79 -281 53 -515 67 -645 39z"/>
<path d="M4582 4967 c-27 -29 -28 -61 -2 -87 20 -20 33 -20 663 -20 l643 0 38
-46 c23 -28 60 -56 90 -70 99 -46 190 -25 272 62 l51 54 795 0 c757 0 796 1
811 18 22 25 21 75 -1 95 -17 16 -89 17 -836 17 l-818 0 -55 -50 c-75 -69
-130 -81 -190 -42 -12 7 -27 11 -33 7 -6 -4 -9 -3 -8 2 1 4 -15 25 -36 46
l-38 37 -662 0 -663 0 -21 -23z"/>
<path d="M6556 4745 c-24 -8 -66 -42 -115 -93 -43 -44 -87 -83 -99 -86 -12 -4
-22 -12 -22 -18 0 -7 19 -8 56 -3 99 12 149 31 226 87 14 10 21 9 40 -9 55
-51 217 -104 268 -88 29 9 24 18 -19 38 -22 10 -69 51 -106 92 -84 94 -137
113 -229 80z"/>
<path d="M3405 4428 c-3 -7 -4 -242 -3 -523 l3 -510 110 0 110 0 3 203 2 202
56 0 c53 0 55 -1 77 -37 56 -97 191 -289 278 -398 245 -305 540 -510 841 -584
268 -66 531 -39 735 75 115 64 272 230 243 257 -9 9 -18 4 -38 -23 -96 -129
-233 -219 -402 -261 -72 -18 -103 -21 -215 -16 -285 11 -493 112 -736 356
-140 140 -251 283 -393 506 l-95 149 52 28 c28 16 62 39 75 51 60 56 99 172
87 255 -22 154 -127 246 -308 271 -114 16 -476 15 -482 -1z m444 -58 c86 -43
127 -143 119 -287 -10 -168 -98 -243 -284 -243 l-53 0 -3 276 c-2 152 -1 278
2 281 3 3 44 3 91 0 60 -4 100 -12 128 -27z"/>
<path d="M4372 4043 c3 -380 4 -400 24 -450 46 -110 133 -178 261 -203 202
-40 385 41 459 202 l29 63 5 383 c3 211 2 389 -1 394 -4 6 -14 8 -23 5 -13 -5
-16 -52 -18 -389 l-3 -383 -34 -69 c-48 -99 -131 -154 -234 -155 -83 -2 -158
44 -197 119 -40 78 -43 113 -44 500 l-1 375 -113 3 -113 3 3 -398z"/>
<path d="M5290 4430 c0 -6 66 -140 147 -298 l148 -287 5 -225 5 -225 113 -3
112 -3 0 218 0 217 86 170 c48 94 118 229 156 300 47 86 66 132 59 139 -5 5
-16 7 -23 5 -7 -3 -76 -125 -152 -272 -76 -146 -141 -266 -145 -266 -3 0 -19
29 -35 63 -16 34 -74 154 -130 267 l-102 205 -122 3 c-84 2 -122 -1 -122 -8z"/>
<path d="M6277 4433 c-4 -3 -7 -240 -7 -525 l0 -518 350 0 c343 0 350 0 350
20 0 19 -7 20 -240 20 l-240 0 0 230 0 230 169 0 c168 0 199 6 172 33 -8 8
-69 13 -176 15 l-165 3 0 230 0 229 241 0 c224 0 240 1 237 18 -3 16 -29 17
-344 20 -187 1 -343 -1 -347 -5z"/>
<path d="M7147 4433 c-4 -3 -7 -237 -7 -520 0 -454 2 -514 15 -520 9 -3 18 -3
22 0 3 3 6 188 6 411 1 224 4 406 7 405 3 0 39 -42 80 -92 41 -50 196 -235
343 -410 217 -257 273 -318 290 -315 l22 3 3 518 c2 460 0 518 -13 524 -9 3
-18 4 -20 2 -2 -2 -6 -154 -9 -338 -2 -183 -6 -335 -9 -337 -2 -2 -75 83 -163
188 -199 241 -395 471 -408 480 -14 10 -150 10 -159 1z"/>
<path d="M6282 3158 c-57 -19 -117 -87 -132 -147 -30 -125 20 -220 171 -327
85 -61 181 -140 212 -175 l28 -32 71 69 c40 38 71 72 70 77 -1 4 3 6 10 5 7
-2 12 3 13 11 0 8 7 16 15 18 13 4 13 3 0 -6 -8 -6 -10 -11 -4 -11 27 0 160
108 211 173 26 32 46 117 40 168 -6 50 -28 95 -41 82 -4 -4 -4 0 -1 9 7 17
-47 64 -98 86 -38 16 -120 15 -161 -2 -41 -17 -119 -93 -111 -106 4 -6 2 -10
-2 -10 -5 0 -22 18 -39 39 -16 22 -46 50 -67 61 -45 26 -136 34 -185 18z m583
-407 c-3 -12 -10 -21 -15 -21 -4 0 -3 11 3 24 14 29 22 27 12 -3z"/>
</g>
</svg>
